HIERARCHY
ROOT hip
{
  OFFSET 0 90.174 2.4664
  CHANNELS 6 Xposition Yposition Zposition Zrotation Xrotation Yrotation
  JOINT abdomen
  {
    OFFSET 0 -1.186 -1.5018
    CHANNELS 6 Xposition Yposition Zposition Zrotation Xrotation Yrotation
    JOINT abdomen2
    {
      OFFSET 0 9.964 0.2134
      CHANNELS 6 Xposition Yposition Zposition Zrotation Xrotation Yrotation
      JOINT chest
      {
        OFFSET 0 13.134 -3.2573
        CHANNELS 6 Xposition Yposition Zposition Zrotation Xrotation Yrotation
        JOINT neck
        {
          OFFSET 0 20.686 -1.6905
          CHANNELS 6 Xposition Yposition Zposition Zrotation Xrotation Yrotation
          JOINT head
          {
            OFFSET 0 7.238 -0.1237
            CHANNELS 6 Xposition Yposition Zposition Zrotation Xrotation Yrotation
            End Site
            {
              OFFSET 0 0 0
            }
          }
        }
        JOINT lCollar
        {
          OFFSET 1.7069 20.075 5.0056
          CHANNELS 6 Xposition Yposition Zposition Zrotation Xrotation Yrotation
          JOINT lShldr
          {
            OFFSET 13.6458 -0.047 -4.849
            CHANNELS 6 Xposition Yposition Zposition Zrotation Xrotation Yrotation
            JOINT lForeArm
            {
              OFFSET 28.3255 -0.9759 2.2888
              CHANNELS 6 Xposition Yposition Zposition Zrotation Xrotation Yrotation
              JOINT lHand
              {
                OFFSET 22.1583 -0.53 10.8316
                CHANNELS 6 Xposition Yposition Zposition Zrotation Xrotation Yrotation
                JOINT lThumb1
                {
                  OFFSET 0.786 0.112 2.5817
                  CHANNELS 6 Xposition Yposition Zposition Zrotation Xrotation Yrotation
                  JOINT lThumb2
                  {
                    OFFSET 0.3601 -0.878 4.2331
                    CHANNELS 6 Xposition Yposition Zposition Zrotation Xrotation Yrotation
                    JOINT lThumb2_End
                    {
                      OFFSET 1.8127 -1.216 2.2227
                      CHANNELS 6 Xposition Yposition Zposition Zrotation Xrotation Yrotation
                      End Site
                      {
                        OFFSET 0.0181 -0.0122 0.0222
                      }
                    }
                  }
                }
                JOINT lCarpal1
                {
                  OFFSET 0.9571 1.114 1.7695
                  CHANNELS 6 Xposition Yposition Zposition Zrotation Xrotation Yrotation
                  JOINT lIndex1
                  {
                    OFFSET 4.1246 0.487 4.1451
                    CHANNELS 6 Xposition Yposition Zposition Zrotation Xrotation Yrotation
                    JOINT lIndex2
                    {
                      OFFSET 3.4052 -1.454 2.7682
                      CHANNELS 6 Xposition Yposition Zposition Zrotation Xrotation Yrotation
                      JOINT lIndex2_End
                      {
                        OFFSET 1.4531 -1.795 1.2713
                        CHANNELS 6 Xposition Yposition Zposition Zrotation Xrotation Yrotation
                        End Site
                        {
                          OFFSET 0.0145 -0.0179 0.0127
                        }
                      }
                    }
                  }
                  JOINT lMid1
                  {
                    OFFSET 5.6954 0.21 2.1184
                    CHANNELS 6 Xposition Yposition Zposition Zrotation Xrotation Yrotation
                    JOINT lMid2
                    {
                      OFFSET 3.9766 -1.54 2.3863
                      CHANNELS 6 Xposition Yposition Zposition Zrotation Xrotation Yrotation
                      JOINT lMid2_End
                      {
                        OFFSET 1.4042 -1.926 1.125
                        CHANNELS 6 Xposition Yposition Zposition Zrotation Xrotation Yrotation
                        End Site
                        {
                          OFFSET 0.014 -0.0193 0.0113
                        }
                      }
                    }
                  }
                }
                JOINT lCarpal2
                {
                  OFFSET 2.0956 0.66 -0.3894
                  CHANNELS 6 Xposition Yposition Zposition Zrotation Xrotation Yrotation
                  JOINT lRing1
                  {
                    OFFSET 5.0395 -0.09 2.4971
                    CHANNELS 6 Xposition Yposition Zposition Zrotation Xrotation Yrotation
                    JOINT lRing2
                    {
                      OFFSET 3.7921 -1.552 1.4806
                      CHANNELS 6 Xposition Yposition Zposition Zrotation Xrotation Yrotation
                      JOINT lRing2_End
                      {
                        OFFSET 1.4655 -1.808 0.9609
                        CHANNELS 6 Xposition Yposition Zposition Zrotation Xrotation Yrotation
                        End Site
                        {
                          OFFSET 0.0147 -0.0181 0.0096
                        }
                      }
                    }
                  }
                  JOINT lPinky1
                  {
                    OFFSET 4.9141 -1.269 0.3591
                    CHANNELS 6 Xposition Yposition Zposition Zrotation Xrotation Yrotation
                    JOINT lPinky2
                    {
                      OFFSET 3.1477 -1.685 0.8462
                      CHANNELS 6 Xposition Yposition Zposition Zrotation Xrotation Yrotation
                      JOINT lPinky2_End
                      {
                        OFFSET 0.8055 -1.585 0.7955
                        CHANNELS 6 Xposition Yposition Zposition Zrotation Xrotation Yrotation
                        End Site
                        {
                          OFFSET 0.0081 -0.0158 0.008
                        }
                      }
                    }
                  }
                }
              }
            }
          }
        }
        JOINT rCollar
        {
          OFFSET -1.7069 20.075 5.0056
          CHANNELS 6 Xposition Yposition Zposition Zrotation Xrotation Yrotation
          JOINT rShldr
          {
            OFFSET -13.6458 -0.047 -4.849
            CHANNELS 6 Xposition Yposition Zposition Zrotation Xrotation Yrotation
            JOINT rForeArm
            {
              OFFSET -28.3255 -0.9759 2.2888
              CHANNELS 6 Xposition Yposition Zposition Zrotation Xrotation Yrotation
              JOINT rHand
              {
                OFFSET -22.1583 -0.53 10.8316
                CHANNELS 6 Xposition Yposition Zposition Zrotation Xrotation Yrotation
                JOINT rThumb1
                {
                  OFFSET -0.786 0.112 2.5817
                  CHANNELS 6 Xposition Yposition Zposition Zrotation Xrotation Yrotation
                  JOINT rThumb2
                  {
                    OFFSET -0.3601 -0.878 4.2331
                    CHANNELS 6 Xposition Yposition Zposition Zrotation Xrotation Yrotation
                    JOINT rThumb2_End
                    {
                      OFFSET -1.8127 -1.216 2.2227
                      CHANNELS 6 Xposition Yposition Zposition Zrotation Xrotation Yrotation
                      End Site
                      {
                        OFFSET -0.0181 -0.0122 0.0222
                      }
                    }
                  }
                }
                JOINT rCarpal1
                {
                  OFFSET -0.9571 1.114 1.7695
                  CHANNELS 6 Xposition Yposition Zposition Zrotation Xrotation Yrotation
                  JOINT rIndex1
                  {
                    OFFSET -4.1246 0.487 4.1451
                    CHANNELS 6 Xposition Yposition Zposition Zrotation Xrotation Yrotation
                    JOINT rIndex2
                    {
                      OFFSET -3.4052 -1.454 2.7682
                      CHANNELS 6 Xposition Yposition Zposition Zrotation Xrotation Yrotation
                      JOINT rIndex2_End
                      {
                        OFFSET -1.4531 -1.795 1.2713
                        CHANNELS 6 Xposition Yposition Zposition Zrotation Xrotation Yrotation
                        End Site
                        {
                          OFFSET -0.0145 -0.018 0.0127
                        }
                      }
                    }
                  }
                  JOINT rMid1
                  {
                    OFFSET -5.6954 0.21 2.1184
                    CHANNELS 6 Xposition Yposition Zposition Zrotation Xrotation Yrotation
                    JOINT rMid2
                    {
                      OFFSET -3.9766 -1.54 2.3863
                      CHANNELS 6 Xposition Yposition Zposition Zrotation Xrotation Yrotation
                      JOINT rMid2_End
                      {
                        OFFSET -1.4042 -1.926 1.125
                        CHANNELS 6 Xposition Yposition Zposition Zrotation Xrotation Yrotation
                        End Site
                        {
                          OFFSET -0.014 -0.0193 0.0113
                        }
                      }
                    }
                  }
                }
                JOINT rCarpal2
                {
                  OFFSET -2.0956 0.66 -0.3894
                  CHANNELS 6 Xposition Yposition Zposition Zrotation Xrotation Yrotation
                  JOINT rRing1
                  {
                    OFFSET -5.0395 -0.09 2.4971
                    CHANNELS 6 Xposition Yposition Zposition Zrotation Xrotation Yrotation
                    JOINT rRing2
                    {
                      OFFSET -3.7921 -1.552 1.4806
                      CHANNELS 6 Xposition Yposition Zposition Zrotation Xrotation Yrotation
                      JOINT rRing2_End
                      {
                        OFFSET -1.4655 -1.808 0.9609
                        CHANNELS 6 Xposition Yposition Zposition Zrotation Xrotation Yrotation
                        End Site
                        {
                          OFFSET -0.0147 -0.0181 0.0096
                        }
                      }
                    }
                  }
                  JOINT rPinky1
                  {
                    OFFSET -4.9141 -1.269 0.3592
                    CHANNELS 6 Xposition Yposition Zposition Zrotation Xrotation Yrotation
                    JOINT rPinky2
                    {
                      OFFSET -3.1477 -1.685 0.8462
                      CHANNELS 6 Xposition Yposition Zposition Zrotation Xrotation Yrotation
                      JOINT rPinky2_End
                      {
                        OFFSET -0.8055 -1.585 0.7955
                        CHANNELS 6 Xposition Yposition Zposition Zrotation Xrotation Yrotation
                        End Site
                        {
                          OFFSET -0.0081 -0.0158 0.008
                        }
                      }
                    }
                  }
                }
              }
            }
          }
        }
      }
    }
  }
  JOINT lThigh
  {
    OFFSET 8.367 -8.2066 0.5982
    CHANNELS 6 Xposition Yposition Zposition Zrotation Xrotation Yrotation
    JOINT lShin
    {
      OFFSET 2.1923 -43.463 -0.4932
      CHANNELS 6 Xposition Yposition Zposition Zrotation Xrotation Yrotation
      JOINT lFoot
      {
        OFFSET 0.7333 -45.8593 -2.6451
        CHANNELS 6 Xposition Yposition Zposition Zrotation Xrotation Yrotation
        End Site
        {
          OFFSET 2.6618 -4.2699 12.3931
        }
      }
    }
  }
  JOINT rThigh
  {
    OFFSET -8.367 -8.2066 0.5982
    CHANNELS 6 Xposition Yposition Zposition Zrotation Xrotation Yrotation
    JOINT rShin
    {
      OFFSET -2.1923 -43.463 -0.4931
      CHANNELS 6 Xposition Yposition Zposition Zrotation Xrotation Yrotation
      JOINT rFoot
      {
        OFFSET -0.7333 -45.8593 -2.6451
        CHANNELS 6 Xposition Yposition Zposition Zrotation Xrotation Yrotation
        End Site
        {
          OFFSET -2.6618 -4.2699 12.3931
        }
      }
    }
  }
}
MOTION
Frames:	4
Frame Time:	0.0333333
0 90.174 2.4664 0 0 -0 0 -1.186 -1.5018 0 0 -0 0 9.964 0.2134 0 0 -0 0 13.134 -3.2573 0 0 -0 0 20.686 -1.6905 0 0 -0 0 7.238 -0.1237 0 0 -0 1.7069 20.075 5.0056 0 0 -0 13.6458 -0.047 -4.849 1.66051 0.0835086 5.75766 28.3255 -0.9759 2.2888 -0.0175111 0.895433 15.7816 22.1583 -0.53 10.8316 7.95139e-016 -1.98785e-016 -0 0.786 0.112 2.5817 5.46658e-016 -3.97569e-016 -0 0.3601 -0.878 4.2331 5.96354e-016 0 -0 1.8127 -1.216 2.2227 3.97569e-016 1.98785e-016 9.54166e-015 0.9571 1.114 1.7695 1.49089e-016 -3.97569e-016 -0 4.1246 0.487 4.1451 6.4605e-016 0 3.18055e-015 3.4052 -1.454 2.7682 5.96354e-016 0 3.18055e-015 1.4531 -1.795 1.2713 8.94531e-016 -1.98785e-016 6.36111e-015 5.6954 0.21 2.1184 6.4605e-016 0 3.18055e-015 3.9766 -1.54 2.3863 5.96354e-016 0 3.18055e-015 1.4042 -1.926 1.125 8.94531e-016 -1.98785e-016 6.36111e-015 2.0956 0.66 -0.3894 1.49089e-016 -3.97569e-016 -0 5.0395 -0.09 2.4971 6.4605e-016 0 3.18055e-015 3.7921 -1.552 1.4806 5.96354e-016 0 3.18055e-015 1.4655 -1.808 0.9609 8.94531e-016 -1.98785e-016 6.36111e-015 4.9141 -1.269 0.3591 6.4605e-016 0 3.18055e-015 3.1477 -1.685 0.8462 5.96354e-016 0 3.18055e-015 0.8055 -1.585 0.7955 8.94531e-016 -1.98785e-016 6.36111e-015 -1.7069 20.075 5.0056 0 0 -0 -13.6458 -0.047 -4.849 -1.4496 0.0636048 -5.0245 -28.3255 -0.9759 2.2888 -1.74811 1.20616 -16.8394 -22.1583 -0.53 10.8316 -1.19271e-015 1.98785e-016 -3.18055e-015 -0.786 0.112 2.5817 -3.97569e-016 1.98785e-016 -3.18055e-015 -0.3601 -0.878 4.2331 -2.98177e-016 1.98785e-016 -3.18055e-015 -1.8127 -1.216 2.2227 -2.98177e-016 3.97569e-016 -0 -0.9571 1.114 1.7695 4.96962e-016 0 -6.36111e-015 -4.1246 0.487 4.1451 -9.93923e-017 3.97569e-016 -0 -3.4052 -1.454 2.7682 -8.94531e-016 5.96354e-016 -0 -1.4531 -1.795 1.2713 -3.97569e-016 3.97569e-016 -0 -5.6954 0.21 2.1184 -9.93923e-017 3.97569e-016 -0 -3.9766 -1.54 2.3863 -8.94531e-016 5.96354e-016 -0 -1.4042 -1.926 1.125 -3.97569e-016 3.97569e-016 -0 -2.0956 0.66 -0.3894 4.96962e-016 0 -6.36111e-015 -5.0395 -0.09 2.4971 -9.93923e-017 3.97569e-016 -0 -3.7921 -1.552 1.4806 -8.94531e-016 5.96354e-016 -0 -1.4655 -1.808 0.9609 -3.97569e-016 3.97569e-016 -0 -4.9141 -1.269 0.3592 -9.93923e-017 3.97569e-016 -0 -3.1477 -1.685 0.8462 -8.94531e-016 5.96354e-016 -0 -0.8055 -1.585 0.7955 -3.97569e-016 3.97569e-016 -0 8.367 -8.2066 0.5982 -4.66115 -1.03232 0.120763 2.1923 -43.463 -0.4932 0.00990601 1.55097 0.177175 0.7333 -45.8593 -2.6451 4.65196 -0.54114 -0.255042 -8.367 -8.2066 0.5982 4.66115 -1.03222 -0.120763 -2.1923 -43.463 -0.4931 -0.00990459 1.5509 -0.177176 -0.7333 -45.8593 -2.6451 -4.65196 -0.541171 0.255041 
-9.56973 5.4359 0.765197 90 0 -0 0 -1.186 -1.5018 -9.13103 -0.109725 -0.11611 8.88178e-016 9.964 0.2134 -18.2623 -0.199596 -0.248173 -2.66454e-015 13.134 -3.2573 -18.2623 -0.199596 -0.248173 -1.77636e-015 20.686 -1.6905 17.3546 11.4683 -28.5571 5.32907e-015 7.238 -0.1237 -3.15106e-006 8.6059e-007 -1.51952e-006 1.7069 20.075 5.0056 -10.7458 0.0728931 -5.68756 13.6458 -0.047 -4.849 -4.47283 8.51984 -68.9114 28.3255 -0.9759 2.2888 -0.906068 1.89614 -61.6189 22.1583 -0.53 10.8316 0.928648 -0.366379 0.0199197 0.786 0.112 2.5817 -7.95139e-015 -5.56597e-015 1.27222e-014 0.3601 -0.878 4.2331 -3.66057e-006 -2.41775e-007 -5.39569e-007 1.8127 -1.216 2.2227 -3.17702e-007 -7.56291e-007 -2.36084e-007 0.9571 1.114 1.7695 1.59028e-015 -4.77083e-015 9.54166e-015 4.1246 0.487 4.1451 6.36111e-015 6.36111e-015 6.36111e-015 3.4052 -1.454 2.7682 -3.66057e-006 -2.41775e-007 -5.39569e-007 1.4531 -1.795 1.2713 -3.17702e-007 -7.56291e-007 -2.36084e-007 5.6954 0.21 2.1184 6.36111e-015 6.36111e-015 6.36111e-015 3.9766 -1.54 2.3863 -3.66057e-006 -2.41775e-007 -5.39569e-007 1.4042 -1.926 1.125 -3.17702e-007 -7.56291e-007 -2.36084e-007 2.0956 0.66 -0.3894 1.59028e-015 -4.77083e-015 9.54166e-015 5.0395 -0.09 2.4971 6.36111e-015 6.36111e-015 6.36111e-015 3.7921 -1.552 1.4806 -3.66057e-006 -2.41775e-007 -5.39569e-007 1.4655 -1.808 0.9609 -3.17702e-007 -7.56291e-007 -2.36084e-007 4.9141 -1.269 0.3591 6.36111e-015 6.36111e-015 6.36111e-015 3.1477 -1.685 0.8462 -3.66057e-006 -2.41775e-007 -5.39569e-007 0.8055 -1.585 0.7955 -3.17702e-007 -7.56291e-007 -2.36084e-007 -1.7069 20.075 5.0056 7.99914 -0.194712 -0.00216073 -13.6458 -0.047 -4.849 30.4947 14.2473 -41.9137 -28.3255 -0.9759 2.2888 -47.3562 -44.6021 83.2085 -22.1583 -0.53 10.8316 2.41155 12.3894 1.13151 -0.786 0.112 2.5817 1.72189e-007 5.29013e-007 1.69134e-006 -0.3601 -0.878 4.2331 -1.72189e-007 -5.29013e-007 -1.69134e-006 -1.8127 -1.216 2.2227 1.72189e-007 5.29013e-007 1.69134e-006 -0.9571 1.114 1.7695 7.95139e-016 -1.98785e-016 3.18055e-015 -4.1246 0.487 4.1451 1.72189e-007 5.29013e-007 1.69134e-006 -3.4052 -1.454 2.7682 -1.72189e-007 -5.29013e-007 -1.69134e-006 -1.4531 -1.795 1.2713 1.72189e-007 5.29013e-007 1.69134e-006 -5.6954 0.21 2.1184 1.72189e-007 5.29013e-007 1.69134e-006 -3.9766 -1.54 2.3863 -1.72189e-007 -5.29013e-007 -1.69134e-006 -1.4042 -1.926 1.125 1.72189e-007 5.29013e-007 1.69134e-006 -2.0956 0.66 -0.3894 7.95139e-016 -1.98785e-016 3.18055e-015 -5.0395 -0.09 2.4971 1.72189e-007 5.29013e-007 1.69134e-006 -3.7921 -1.552 1.4806 -1.72189e-007 -5.29013e-007 -1.69134e-006 -1.4655 -1.808 0.9609 1.72189e-007 5.29013e-007 1.69134e-006 -4.9141 -1.269 0.3592 1.72189e-007 5.29013e-007 1.69134e-006 -3.1477 -1.685 0.8462 -1.72189e-007 -5.29013e-007 -1.69134e-006 -0.8055 -1.585 0.7955 1.72189e-007 5.29013e-007 1.69134e-006 8.367 -8.2066 0.5982 31.1548 -40.6111 95.0388 2.1923 -43.463 -0.4932 -6.72109 74.4192 9.72863 0.7333 -45.8593 -2.6451 16.3068 44.4692 -3.86632 -8.367 -8.2066 0.5982 -3.534 -29.5029 -2.82733 -2.1923 -43.463 -0.4931 2.8519 39.6843 -3.44324 -0.7333 -45.8593 -2.6451 -14.01 44.1966 5.26032 
-9.56973 5.4359 0.765197 90 0 -0 0 -1.186 -1.5018 -9.13103 -0.109725 -0.11611 8.88178e-016 9.964 0.2134 -18.2623 -0.199596 -0.248173 -2.66454e-015 13.134 -3.2573 -18.2623 -0.199596 -0.248173 -1.77636e-015 20.686 -1.6905 17.4102 11.4192 -28.566 1.77636e-015 7.238 -0.1237 -3.57305e-006 1.04882e-006 2.15533e-006 1.7069 20.075 5.0056 -10.7458 0.0728931 -5.68756 13.6458 -0.047 -4.849 -4.51724 8.64245 -68.6935 28.3255 -0.9759 2.2888 -0.906066 1.89615 -61.6188 22.1583 -0.53 10.8316 0.928629 -0.366364 0.0199086 0.786 0.112 2.5817 -3.19332e-007 -7.55595e-007 -2.3615e-007 0.3601 -0.878 4.2331 -4.78998e-007 -1.13339e-006 -3.54224e-007 1.8127 -1.216 2.2227 -3.19332e-007 -7.55595e-007 -2.3615e-007 0.9571 1.114 1.7695 1.59028e-015 -2.38542e-015 -0 4.1246 0.487 4.1451 -3.19332e-007 -7.55595e-007 -2.3615e-007 3.4052 -1.454 2.7682 -4.78998e-007 -1.13339e-006 -3.54224e-007 1.4531 -1.795 1.2713 -3.19332e-007 -7.55595e-007 -2.3615e-007 5.6954 0.21 2.1184 -3.19332e-007 -7.55595e-007 -2.3615e-007 3.9766 -1.54 2.3863 -4.78998e-007 -1.13339e-006 -3.54224e-007 1.4042 -1.926 1.125 -3.19332e-007 -7.55595e-007 -2.3615e-007 2.0956 0.66 -0.3894 1.59028e-015 -2.38542e-015 -0 5.0395 -0.09 2.4971 -3.19332e-007 -7.55595e-007 -2.3615e-007 3.7921 -1.552 1.4806 -4.78998e-007 -1.13339e-006 -3.54224e-007 1.4655 -1.808 0.9609 -3.19332e-007 -7.55595e-007 -2.3615e-007 4.9141 -1.269 0.3591 -3.19332e-007 -7.55595e-007 -2.3615e-007 3.1477 -1.685 0.8462 -4.78998e-007 -1.13339e-006 -3.54224e-007 0.8055 -1.585 0.7955 -3.19332e-007 -7.55595e-007 -2.3615e-007 -1.7069 20.075 5.0056 7.99914 -0.194712 -0.0021607 -13.6458 -0.047 -4.849 30.4947 14.2473 -41.9137 -28.3255 -0.9759 2.2888 -47.3561 -44.6021 83.2085 -22.1583 -0.53 10.8316 2.41155 12.3894 1.13151 -0.786 0.112 2.5817 -4.8215e-007 -6.97365e-007 9.60214e-008 -0.3601 -0.878 4.2331 -2.60011e-006 -7.79111e-007 3.00802e-007 -1.8127 -1.216 2.2227 -2.41075e-007 -3.48682e-007 4.80107e-008 -0.9571 1.114 1.7695 2.38542e-015 -5.96354e-016 -3.18055e-015 -4.1246 0.487 4.1451 -4.8215e-007 -6.97365e-007 9.60214e-008 -3.4052 -1.454 2.7682 -2.60011e-006 -7.79111e-007 3.00802e-007 -1.4531 -1.795 1.2713 -2.41075e-007 -3.48682e-007 4.80107e-008 -5.6954 0.21 2.1184 -4.8215e-007 -6.97365e-007 9.60214e-008 -3.9766 -1.54 2.3863 -2.60011e-006 -7.79111e-007 3.00802e-007 -1.4042 -1.926 1.125 -2.41075e-007 -3.48682e-007 4.80107e-008 -2.0956 0.66 -0.3894 2.38542e-015 -5.96354e-016 -3.18055e-015 -5.0395 -0.09 2.4971 -4.8215e-007 -6.97365e-007 9.60214e-008 -3.7921 -1.552 1.4806 -2.60011e-006 -7.79111e-007 3.00802e-007 -1.4655 -1.808 0.9609 -2.41075e-007 -3.48682e-007 4.80107e-008 -4.9141 -1.269 0.3592 -4.8215e-007 -6.97365e-007 9.60214e-008 -3.1477 -1.685 0.8462 -2.60011e-006 -7.79111e-007 3.00802e-007 -0.8055 -1.585 0.7955 -2.41075e-007 -3.48682e-007 4.80107e-008 8.367 -8.2066 0.5982 31.1548 -40.6111 95.0388 2.1923 -43.463 -0.4932 -6.72109 74.4192 9.72863 0.7333 -45.8593 -2.6451 16.3068 44.4692 -3.86632 -8.367 -8.2066 0.5982 -3.534 -29.5029 -2.82733 -2.1923 -43.463 -0.4931 2.8519 39.6843 -3.44324 -0.7333 -45.8593 -2.6451 -14.01 44.1966 5.26032 
-9.56973 5.4359 0.765197 90 0 -0 0 -1.186 -1.5018 -9.13103 -0.109725 -0.11611 8.88178e-016 9.964 0.2134 -18.2623 -0.199596 -0.248173 -2.66454e-015 13.134 -3.2573 -18.2623 -0.199596 -0.248173 -1.77636e-015 20.686 -1.6905 17.4659 11.3701 -28.5748 1.77636e-015 7.238 -0.1237 2.8633e-006 5.73208e-007 7.08049e-007 1.7069 20.075 5.0056 -10.7458 0.0728937 -5.68756 13.6458 -0.047 -4.849 -4.56218 8.765 -68.4753 28.3255 -0.9759 2.2888 -0.906063 1.89615 -61.6189 22.1583 -0.53 10.8316 0.928649 -0.366376 0.01991 0.786 0.112 2.5817 -7.13605e-007 6.70096e-007 -8.99569e-007 0.3601 -0.878 4.2331 5.36123e-007 -2.91411e-007 -2.29717e-006 1.8127 -1.216 2.2227 -6.33365e-007 8.5882e-007 -8.40516e-007 0.9571 1.114 1.7695 -5.56597e-015 7.95139e-015 -3.18055e-015 4.1246 0.487 4.1451 -7.13605e-007 6.70096e-007 -8.99569e-007 3.4052 -1.454 2.7682 5.36123e-007 -2.91411e-007 -2.29717e-006 1.4531 -1.795 1.2713 -6.33365e-007 8.5882e-007 -8.40516e-007 5.6954 0.21 2.1184 -7.13605e-007 6.70096e-007 -8.99569e-007 3.9766 -1.54 2.3863 5.36123e-007 -2.91411e-007 -2.29717e-006 1.4042 -1.926 1.125 -6.33365e-007 8.5882e-007 -8.40516e-007 2.0956 0.66 -0.3894 -5.56597e-015 7.95139e-015 -3.18055e-015 5.0395 -0.09 2.4971 -7.13605e-007 6.70096e-007 -8.99569e-007 3.7921 -1.552 1.4806 5.36123e-007 -2.91411e-007 -2.29717e-006 1.4655 -1.808 0.9609 -6.33365e-007 8.5882e-007 -8.40516e-007 4.9141 -1.269 0.3591 -7.13605e-007 6.70096e-007 -8.99569e-007 3.1477 -1.685 0.8462 5.36123e-007 -2.91411e-007 -2.29717e-006 0.8055 -1.585 0.7955 -6.33365e-007 8.5882e-007 -8.40516e-007 -1.7069 20.075 5.0056 7.99914 -0.194712 -0.00216075 -13.6458 -0.047 -4.849 30.4947 14.2473 -41.9137 -28.3255 -0.9759 2.2888 -47.3562 -44.6021 83.2085 -22.1583 -0.53 10.8316 2.41155 12.3894 1.13151 -0.786 0.112 2.5817 3.18055e-015 2.38542e-015 -3.18055e-015 -0.3601 -0.878 4.2331 7.95139e-016 2.5842e-015 -0 -1.8127 -1.216 2.2227 -7.95139e-016 7.95139e-016 -3.18055e-015 -0.9571 1.114 1.7695 3.18055e-015 -2.78299e-015 -3.18055e-015 -4.1246 0.487 4.1451 -3.31043e-032 -5.96354e-016 -3.18055e-015 -3.4052 -1.454 2.7682 7.95139e-016 3.37934e-015 -3.18055e-015 -1.4531 -1.795 1.2713 -2.38542e-015 7.35503e-015 -0 -5.6954 0.21 2.1184 -3.31043e-032 -5.96354e-016 -3.18055e-015 -3.9766 -1.54 2.3863 7.95139e-016 3.37934e-015 -3.18055e-015 -1.4042 -1.926 1.125 -2.38542e-015 7.35503e-015 -0 -2.0956 0.66 -0.3894 3.18055e-015 -2.78299e-015 -3.18055e-015 -5.0395 -0.09 2.4971 -3.31043e-032 -5.96354e-016 -3.18055e-015 -3.7921 -1.552 1.4806 7.95139e-016 3.37934e-015 -3.18055e-015 -1.4655 -1.808 0.9609 -2.38542e-015 7.35503e-015 -0 -4.9141 -1.269 0.3592 -3.31043e-032 -5.96354e-016 -3.18055e-015 -3.1477 -1.685 0.8462 7.95139e-016 3.37934e-015 -3.18055e-015 -0.8055 -1.585 0.7955 -2.38542e-015 7.35503e-015 -0 8.367 -8.2066 0.5982 31.1548 -40.6111 95.0388 2.1923 -43.463 -0.4932 -6.72111 74.4192 9.72864 0.7333 -45.8593 -2.6451 16.3068 44.4692 -3.86633 -8.367 -8.2066 0.5982 -3.53398 -29.5029 -2.82732 -2.1923 -43.463 -0.4931 2.8519 39.6842 -3.44322 -0.7333 -45.8593 -2.6451 -14.01 44.1967 5.26032 
